<?xml version="1.0" encoding="UTF-8" standalone="no"?>
<svg
   width="2174.3086"
   height="2199.9106"
   viewBox="-28.364 -29.444 37.242184 37.681829"
   version="1.1"
   id="svg1"
   xmlns="http://www.w3.org/2000/svg"
   xmlns:svg="http://www.w3.org/2000/svg">
  <defs
     id="defs1" />
  <path
     fill="#ff6600"
     d="m -18.709716,3.3954131 c 0,2.6618776 -2.1647,4.826578 -4.827458,4.826578 -2.662757,0 -4.827458,-2.1647004 -4.827458,-4.826578 0,-2.66275769 2.164701,-4.8274582 4.827458,-4.8274582 2.662758,0 4.827458,2.16558051 4.827458,4.8274582 z M 8.8778966,8.2228711 C 8.9509366,-2.8795786 3.8172489,-13.879953 -4.7843558,-20.901151 -11.337415,-26.371859 -19.821984,-29.472837 -28.364632,-29.443798 v 8.616564 c 10.108096,-0.117035 20.0701175,5.382713 25.2618789,14.0723135 A 28.846834,28.846834 0 0 1 1.1104933,8.2079121 h 7.7674033 z m -13.1641953,0 c 0.043118,-7.1382319 -3.3500061,-14.1594292 -8.8937513,-18.6357831 -4.242285,-3.481121 -9.698034,-5.44167 -15.183702,-5.411752 v 7.2552669 c 5.967886,-0.073037 11.819617,3.350006 14.671566,8.60072471 a 16.9797,16.9797 0 0 1 2.121582,8.20650249 h 7.2843053 z"
     id="path1"
     style="fill:#ffffff;fill-opacity:1;stroke-width:0.87996" />
</svg>
