<?xml version="1.0" encoding="UTF-8" standalone="no"?>
<svg
   width="2174.3086"
   height="2199.9106"
   viewBox="-28.364 -29.444 37.242184 37.681829"
   version="1.1"
   id="svg1"
   sodipodi:docname="rss_variant.svg"
   inkscape:version="1.3.2 (091e20e, 2023-11-25)"
   xmlns:inkscape="http://www.inkscape.org/namespaces/inkscape"
   xmlns:sodipodi="http://sodipodi.sourceforge.net/DTD/sodipodi-0.dtd"
   xmlns="http://www.w3.org/2000/svg"
   xmlns:svg="http://www.w3.org/2000/svg">
  <sodipodi:namedview
     id="namedview1"
     pagecolor="#ffffff"
     bordercolor="#000000"
     borderopacity="0.25"
     inkscape:showpageshadow="2"
     inkscape:pageopacity="0.0"
     inkscape:pagecheckerboard="0"
     inkscape:deskcolor="#d1d1d1"
     inkscape:zoom="0.10727708"
     inkscape:cx="1090.6337"
     inkscape:cy="1099.9553"
     inkscape:window-width="1472"
     inkscape:window-height="833"
     inkscape:window-x="0"
     inkscape:window-y="38"
     inkscape:window-maximized="1"
     inkscape:current-layer="svg1" />
  <defs
     id="defs1" />
  <path
     fill="#ff6600"
     d="m -17.341909,1.2600491 c 0,2.2558284 -1.834492,4.0903203 -4.091066,4.0903203 -2.256574,0 -4.091067,-1.8344919 -4.091067,-4.0903203 0,-2.25657438 1.834493,-4.0910663 4.091067,-4.0910663 2.256574,0 4.091066,1.83523769 4.091066,4.0910663 z M 6.0374235,5.3511152 C 6.0993218,-4.0577406 1.748739,-13.380092 -5.5407566,-19.33026 -11.094197,-23.966453 -18.284509,-26.5944 -25.524042,-26.569791 v 7.302173 c 8.566184,-0.09918 17.0085747,4.561621 21.4083725,11.9256894 a 24.44647,24.44647 0 0 1 3.5705478,12.6803667 h 6.5825452 z m -11.1560978,0 c 0.036541,-6.04934913 -2.8389882,-11.9995164 -7.5370777,-15.7930362 -3.595156,-2.950103 -8.218673,-4.611585 -12.867544,-4.586231 v 6.1485313 c 5.057531,-0.061896 10.016625,2.8389882 12.433531,7.2887498 a 14.389576,14.389576 0 0 1 1.797951,6.9546632 h 6.1731397 z"
     id="path1"
     style="fill:#ffffff;fill-opacity:1;stroke-width:0.745729" />
</svg>
