<?xml version="1.0" encoding="UTF-8" standalone="no"?>
<svg
   width="2174.3086"
   height="2199.9106"
   viewBox="-28.364 -29.444 37.242184 37.681829"
   version="1.1"
   id="svg1"
   sodipodi:docname="rss_color_variant.svg"
   inkscape:version="1.3.2 (091e20e, 2023-11-25)"
   xmlns:inkscape="http://www.inkscape.org/namespaces/inkscape"
   xmlns:sodipodi="http://sodipodi.sourceforge.net/DTD/sodipodi-0.dtd"
   xmlns="http://www.w3.org/2000/svg"
   xmlns:svg="http://www.w3.org/2000/svg">
  <sodipodi:namedview
     id="namedview1"
     pagecolor="#ffffff"
     bordercolor="#000000"
     borderopacity="0.25"
     inkscape:showpageshadow="2"
     inkscape:pageopacity="0.0"
     inkscape:pagecheckerboard="0"
     inkscape:deskcolor="#d1d1d1"
     inkscape:zoom="0.10727708"
     inkscape:cx="1090.6337"
     inkscape:cy="1099.9553"
     inkscape:window-width="1472"
     inkscape:window-height="833"
     inkscape:window-x="0"
     inkscape:window-y="38"
     inkscape:window-maximized="1"
     inkscape:current-layer="svg1" />
  <defs
     id="defs1" />
  <path
     fill="#ff6600"
     d="m -17.402688,1.3549338 c 0,2.2738712 -1.849164,4.1230359 -4.123787,4.1230359 -2.274623,0 -4.123788,-1.8491647 -4.123788,-4.1230359 0,-2.2746231 1.849165,-4.1237878 4.123788,-4.1237878 2.274623,0 4.123787,1.84991643 4.123787,4.1237878 z M 6.1636397,5.4787214 C 6.226033,-4.005389 1.840653,-13.402303 -5.507146,-19.400062 c -5.597858,-4.673275 -12.845681,-7.322241 -20.143117,-7.297435 v 7.360578 c 8.634698,-0.09998 17.1446137,4.598106 21.5796023,12.021074 a 24.641999,24.641999 0 0 1 3.5991061,12.7817879 h 6.6351943 z m -11.2453274,0 c 0.036833,-6.09773353 -2.8616953,-12.0954919 -7.5973613,-15.9193534 -3.623912,-2.973699 -8.284408,-4.64847 -12.970462,-4.622913 v 6.1977091 c 5.097982,-0.062391 10.09674,2.8616952 12.532977,7.3470473 a 14.504668,14.504668 0 0 1 1.812332,7.0102885 h 6.2225143 z"
     id="path1"
     style="stroke-width:0.751693" />
</svg>
