<?xml version="1.0" encoding="UTF-8" standalone="no"?>
<!-- Created with Inkscape (http://www.inkscape.org/) -->

<svg
   version="1.1"
   id="svg1182"
   xml:space="preserve"
   width="234.66666"
   height="165.33333"
   viewBox="0 0 234.66666 165.33333"
   sodipodi:docname="type_youtube_color.svg"
   inkscape:version="1.1.2 (b8e25be833, 2022-02-05)"
   xmlns:inkscape="http://www.inkscape.org/namespaces/inkscape"
   xmlns:sodipodi="http://sodipodi.sourceforge.net/DTD/sodipodi-0.dtd"
   xmlns="http://www.w3.org/2000/svg"
   xmlns:svg="http://www.w3.org/2000/svg"><defs
     id="defs1186"><clipPath
       clipPathUnits="userSpaceOnUse"
       id="clipPath1196"><path
         d="M 0,192 H 192 V 0 H 0 Z"
         id="path1194" /></clipPath></defs><sodipodi:namedview
     id="namedview1184"
     pagecolor="#ffffff"
     bordercolor="#999999"
     borderopacity="1"
     inkscape:pageshadow="0"
     inkscape:pageopacity="0"
     inkscape:pagecheckerboard="0"
     showgrid="false"
     fit-margin-top="0"
     fit-margin-left="0"
     fit-margin-right="0"
     fit-margin-bottom="0"
     inkscape:zoom="3.4101562"
     inkscape:cx="117.4433"
     inkscape:cy="82.400916"
     inkscape:window-width="2560"
     inkscape:window-height="1369"
     inkscape:window-x="-8"
     inkscape:window-y="-8"
     inkscape:window-maximized="1"
     inkscape:current-layer="g1188" /><g
     id="g1188"
     inkscape:groupmode="layer"
     inkscape:label="yt_icon_rgb"
     transform="matrix(1.3333333,0,0,-1.3333333,-10.667066,210.66693)"><g
       id="g1190"><g
         id="g1192"
         clip-path="url(#clipPath1196)"><g
           id="g1198"
           transform="translate(180.3223,138.6372)"><path
             d="m 0,0 c -2.024,7.622 -7.987,13.624 -15.561,15.661 -13.724,3.702 -68.761,3.702 -68.761,3.702 0,0 -55.037,0 -68.762,-3.702 -7.573,-2.037 -13.537,-8.039 -15.561,-15.661 -3.677,-13.814 -3.677,-42.637 -3.677,-42.637 0,0 0,-28.822 3.677,-42.638 2.024,-7.621 7.988,-13.623 15.561,-15.661 13.725,-3.701 68.762,-3.701 68.762,-3.701 0,0 55.037,0 68.761,3.701 7.574,2.038 13.537,8.04 15.561,15.661 3.678,13.816 3.678,42.638 3.678,42.638 0,0 0,28.823 -3.678,42.637"
             style="fill:#ff0000;fill-opacity:1;fill-rule:nonzero;stroke:none"
             id="path1200" /></g><g
           id="g1202"
           transform="translate(78,69.8311)"><path
             d="M 0,0 46,26.168 0,52.338 Z"
             style="fill:#ffffff;fill-opacity:1;fill-rule:nonzero;stroke:none"
             id="path1204" /></g></g></g></g></svg>
